<?xml version="1.0" encoding="UTF-8"?><svg id="Layer_2" xmlns="http://www.w3.org/2000/svg" viewBox="0 0 96.51 111.23"><defs><style>.cls-1{fill:none;stroke:#0c1e4e;stroke-miterlimit:10;stroke-width:7px;}</style></defs><g id="c"><path class="cls-1" d="M92.84,92.08c-12.37,12.6-30.83,18.61-49.26,14.23C15.58,99.66-1.73,71.58,4.92,43.58S39.65-1.73,67.65,4.92c10.5,2.49,19.49,8,26.29,15.39"/><circle class="cls-1" cx="66.14" cy="39.76" r="14.25"/><path class="cls-1" d="M36.45,43.69c.21,8.42,.41,16.83,.62,25.25,4.93-1.23,9.85-2.46,14.78-3.69"/><path class="cls-1" d="M66.54,78.11c1.7,3.01,1.82,6.81,0,10.04-2.77,4.91-8.98,6.66-13.88,3.9-3.85-2.17-5.74-6.47-5.03-10.59"/></g></svg>